<svg width="35" height="35" viewBox="0 0 35 35" fill="none" xmlns="http://www.w3.org/2000/svg">
<g id="close">
<path id="Vector" d="M4.69441 6.24304C4.59272 6.14135 4.51205 6.02062 4.45702 5.88776C4.40198 5.75489 4.37366 5.61248 4.37366 5.46867C4.37366 5.32485 4.40198 5.18245 4.45702 5.04958C4.51205 4.91671 4.59272 4.79598 4.69441 4.69429C4.79611 4.5926 4.91683 4.51193 5.0497 4.4569C5.18257 4.40186 5.32497 4.37354 5.46879 4.37354C5.6126 4.37354 5.75501 4.40186 5.88788 4.4569C6.02074 4.51193 6.14147 4.5926 6.24316 4.69429L17.5 15.9534L28.7569 4.69429C28.8586 4.5926 28.9793 4.51193 29.1122 4.4569C29.2451 4.40186 29.3875 4.37354 29.5313 4.37354C29.6751 4.37354 29.8175 4.40186 29.9504 4.4569C30.0832 4.51193 30.204 4.5926 30.3057 4.69429C30.4074 4.79598 30.488 4.91671 30.5431 5.04958C30.5981 5.18245 30.6264 5.32485 30.6264 5.46867C30.6264 5.61248 30.5981 5.75489 30.5431 5.88776C30.488 6.02062 30.4074 6.14135 30.3057 6.24304L19.0466 17.4999L30.3057 28.7568C30.4074 28.8585 30.488 28.9792 30.5431 29.1121C30.5981 29.2449 30.6264 29.3873 30.6264 29.5312C30.6264 29.675 30.5981 29.8174 30.5431 29.9503C30.488 30.0831 30.4074 30.2038 30.3057 30.3055C30.204 30.4072 30.0832 30.4879 29.9504 30.5429C29.8175 30.598 29.6751 30.6263 29.5313 30.6263C29.3875 30.6263 29.2451 30.598 29.1122 30.5429C28.9793 30.4879 28.8586 30.4072 28.7569 30.3055L17.5 19.0465L6.24316 30.3055C6.14147 30.4072 6.02074 30.4879 5.88788 30.5429C5.75501 30.598 5.6126 30.6263 5.46879 30.6263C5.32497 30.6263 5.18257 30.598 5.0497 30.5429C4.91683 30.4879 4.79611 30.4072 4.69441 30.3055C4.59272 30.2038 4.51205 30.0831 4.45702 29.9503C4.40198 29.8174 4.37366 29.675 4.37366 29.5312C4.37366 29.3873 4.40198 29.2449 4.45702 29.1121C4.51205 28.9792 4.59272 28.8585 4.69441 28.7568L15.9535 17.4999L4.69441 6.24304Z" fill="#152536"/>
</g>
</svg>
