<svg width="508" height="402" viewBox="0 0 508 402" fill="none" xmlns="http://www.w3.org/2000/svg">
<g clip-path="url(#clip0_452_721)">
<path d="M339.281 144.855C337.523 146.942 335.292 148.577 332.773 149.625L325.558 157.75L305.121 182.428L291.313 190.78L284.902 179.742L315.167 150.262L323.6 141.682C324.277 139.038 325.576 136.594 327.391 134.556C331.859 129.394 338.144 127.517 341.427 130.36C344.711 133.204 343.751 139.693 339.281 144.855Z" fill="#FFAFAF"/>
<path d="M215.756 169.375L229.046 147.258L285.589 171.553L316.496 146.301C316.496 146.301 328.757 156.864 329.195 157.241C329.633 157.618 298.029 201.392 295.785 201.34C293.541 201.288 215.756 169.375 215.756 169.375Z" fill="#DEDEDE"/>
<path d="M240.025 131H220.373V169.147H240.025V131Z" fill="#FFAFAF"/>
<path d="M272.47 237.299L225.075 233.831C225.075 233.831 205.423 278.914 220.451 307.813L230.855 367.924L226.741 466.862H248.268L281.718 307.813L272.47 237.299Z" fill="#2F2E41"/>
<path d="M263.222 287.792L281.718 303.89L272.47 461.558H251.662L263.222 287.792Z" fill="#2F2E41"/>
<path d="M229.934 138.5C243.503 138.5 254.503 127.501 254.503 113.932C254.503 100.363 243.503 89.3628 229.934 89.3628C216.365 89.3628 205.365 100.363 205.365 113.932C205.365 127.501 216.365 138.5 229.934 138.5Z" fill="#FFAFAF"/>
<path d="M317.914 233.388C315.185 233.419 312.49 232.795 310.052 231.57L299.187 231.406L267.152 232.028L251.812 227.018L255.991 214.957L298.079 218.647L310.084 219.436C312.529 218.223 315.228 217.613 317.957 217.658C324.783 217.674 330.308 221.21 330.296 225.554C330.285 229.899 324.742 233.406 317.914 233.388Z" fill="#FFAFAF"/>
<path d="M241.836 145.398H217.514L209.469 169.673L225.074 233.83L272.47 237.298L269.58 211.289C275.175 202.196 274.729 190.625 268.449 181.991L241.836 145.398Z" fill="#DEDEDE"/>
<path d="M218.717 155.802L244.148 151.436L262.644 210.133L301.947 217.069V233.83C301.947 234.408 248.155 239.032 246.73 237.298C245.304 235.564 218.717 155.802 218.717 155.802Z" fill="#DEDEDE"/>
<path d="M242.202 99.6871C245.22 104.583 242.438 111.033 238.72 115.421C235.001 119.81 230.207 123.662 228.547 129.169C227.059 134.107 228.413 139.432 230.163 144.283C231.913 149.134 234.09 153.97 234.27 159.124C234.451 164.278 232.011 169.97 227.157 171.71C222.175 173.495 216.286 170.689 211.487 172.921C205.237 175.828 203.821 185.893 197.008 186.937C192.814 187.579 188.928 183.943 187.756 179.866C186.584 175.789 187.426 171.438 188.273 167.281C190.594 155.892 192.915 144.504 195.236 133.115C197.168 123.639 199.099 114.163 201.03 104.687C202.183 99.0294 203.551 92.9776 207.804 89.0713C212.999 84.2981 220.831 84.1846 227.881 84.4707C234.358 84.7335 241.096 85.1767 246.735 88.3745C252.373 91.5724 256.515 98.3698 254.564 104.551C252.741 100.201 247.297 97.76 242.836 99.2943" fill="#2F2E41"/>
</g>
<defs>
<clipPath id="clip0_452_721">
<rect width="507.996" height="486.465" fill="white"/>
</clipPath>
</defs>
</svg>
